<svg xmlns="http://www.w3.org/2000/svg" xmlns:xlink="http://www.w3.org/1999/xlink" id="Capa_1" x="0px" y="0px" viewBox="0 0 512 512" style="enable-background:new 0 0 512 512;" xml:space="preserve">
<style type="text/css">
	.st0{fill:#150E4B;}
</style>
<g id="XMLID_1506_">
	<g id="XMLID_992_">
		<path id="XMLID_995_" class="st0" d="M483.08,444H466V310.26c0-18.9-15.37-34.27-34.27-34.27H426v-85.75    c0-15.37-10.17-28.41-24.14-32.74V66c0-2.78-1.14-5.3-2.97-7.11c6.99-12.62,5.14-28.86-5.56-39.56l-16.4-16.4    c-3.9-3.9-10.24-3.9-14.14,0l-16.4,16.4c-10.7,10.7-12.54,26.94-5.56,39.56c-1.83,1.81-2.97,4.33-2.97,7.11v89.96h-49.74V66    c0-2.78-1.14-5.3-2.97-7.11c6.99-12.62,5.14-28.86-5.56-39.56l-16.4-16.4c-3.9-3.9-10.24-3.9-14.14,0l-16.4,16.4    c-10.7,10.7-12.54,26.94-5.56,39.56c-1.83,1.81-2.97,4.33-2.97,7.11v89.96h-49.74V66c0-2.78-1.14-5.3-2.97-7.11    c6.99-12.62,5.14-28.86-5.56-39.56l-16.4-16.4c-3.91-3.9-10.24-3.9-14.14,0l-16.4,16.4c-10.7,10.7-12.54,26.94-5.56,39.56    c-1.83,1.81-2.97,4.33-2.97,7.11v91.42C96.3,161.67,86,174.77,86,190.23v85.75h-5.73c-18.9,0-34.27,15.38-34.27,34.27V444H28.92    c-5.52,0-10,4.48-10,10c0,31.98,26.02,58,58,58h358.15c31.98,0,58-26.02,58-58C493.08,448.48,488.6,444,483.08,444L483.08,444z     M360.53,33.47l9.33-9.33l9.33,9.33c5.15,5.15,5.15,13.52,0,18.66c-5.14,5.15-13.52,5.15-18.66,0    C355.39,46.99,355.39,38.62,360.53,33.47z M357.86,76h24v79.96h-24V76z M246.8,33.47l9.33-9.33l9.33,9.33    c5.15,5.15,5.15,13.52,0,18.66c-5.14,5.15-13.52,5.15-18.66,0C241.65,46.99,241.65,38.62,246.8,33.47L246.8,33.47z M244.13,76h24    v79.96h-24L244.13,76z M130.39,76h24v79.96h-24V76z M133.06,33.47l9.33-9.33l9.33,9.33c5.15,5.15,5.15,13.52,0,18.66    c-5.15,5.15-13.52,5.15-18.66,0C127.92,46.99,127.92,38.62,133.06,33.47L133.06,33.47z M106,190.23c0-7.87,6.4-14.27,14.27-14.27    h0.12h271.34c7.87,0,14.27,6.4,14.27,14.27v85.75H106V190.23z M80.27,295.98h351.46c7.87,0,14.27,6.4,14.27,14.27v11.15h-18.57    c-21.27,0-38.57,17.3-38.57,38.57v5.9c0,10.24-8.33,18.57-18.57,18.57s-18.57-8.33-18.57-18.57v-5.9    c0-21.27-17.3-38.57-38.57-38.57c-21.27,0-38.57,17.3-38.57,38.57v5.9c0,10.24-8.33,18.57-18.57,18.57s-18.57-8.33-18.57-18.57    v-5.9c0-21.27-17.3-38.57-38.57-38.57c-21.27,0-38.57,17.3-38.57,38.57v5.9c0,10.24-8.33,18.57-18.57,18.57    s-18.57-8.33-18.57-18.57v-5.9c0-21.27-17.3-38.57-38.57-38.57H66v-11.15C66,302.39,72.4,295.98,80.27,295.98L80.27,295.98z     M435.08,492H76.92c-17.49,0-32.26-11.88-36.67-28H211c5.52,0,10-4.48,10-10s-4.48-10-10-10H66V341.41h18.57    c10.24,0,18.57,8.33,18.57,18.57v5.9c0,21.27,17.3,38.57,38.57,38.57s38.57-17.3,38.57-38.57v-5.9c0-10.24,8.33-18.57,18.57-18.57    c10.24,0,18.57,8.33,18.57,18.57v5.9c0,21.27,17.3,38.57,38.57,38.57s38.57-17.3,38.57-38.57v-5.9c0-10.24,8.33-18.57,18.57-18.57    c10.24,0,18.57,8.33,18.57,18.57v5.9c0,21.27,17.3,38.57,38.57,38.57s38.57-17.3,38.57-38.57v-5.9c0-10.24,8.33-18.57,18.57-18.57    H446V444H301c-5.52,0-10,4.48-10,10s4.48,10,10,10h170.74C467.34,480.12,452.57,492,435.08,492L435.08,492z"></path>
		<path id="XMLID_2412_" class="st0" d="M256,444c-2.63,0-5.21,1.07-7.07,2.93S246,451.37,246,454s1.07,5.21,2.93,7.07    S253.37,464,256,464s5.21-1.07,7.07-2.93S266,456.63,266,454s-1.07-5.21-2.93-7.07S258.63,444,256,444z"></path>
	</g>
</g>
</svg>