<svg xmlns="http://www.w3.org/2000/svg" xmlns:xlink="http://www.w3.org/1999/xlink" id="Capa_1" x="0px" y="0px" viewBox="0 0 512 512" style="enable-background:new 0 0 512 512;" xml:space="preserve">
<style type="text/css">
	.st0{fill:#150E4B;}
</style>
<g>
	<g>
		<path class="st0" d="M470,76h-97.05c5.69-7.89,9.05-17.56,9.05-28c0-26.47-21.53-48-48-48c-21.51,0-39.76,14.22-45.84,33.75    C279.46,26.43,268.24,22,256,22s-23.46,4.43-32.16,11.75C217.76,14.22,199.51,0,178,0c-26.47,0-48,21.53-48,48    c0,10.44,3.36,20.11,9.05,28H42C18.84,76,0,94.84,0,118v80c0,5.52,4.48,10,10,10h17v269.5c0,19.02,15.48,34.5,34.5,34.5H216h80    h154.5c19.02,0,34.5-15.48,34.5-34.5v-99.53c0-5.52-4.48-10-10-10s-10,4.48-10,10v99.53c0,7.99-6.51,14.5-14.5,14.5H306V208h159    v93c0,5.52,4.48,10,10,10s10-4.48,10-10v-93h17c5.52,0,10-4.48,10-10v-80C512,94.84,493.16,76,470,76z M206,492H61.5    c-7.99,0-14.5-6.51-14.5-14.5V208h159V492z M206,188H37H20v-70c0-12.13,9.87-22,22-22h163.13c-4.76,27.74-28.98,48.93-58.06,48.93    c-5.52,0-10,4.48-10,10s4.48,10,10,10c23.41,0,44.46-10.25,58.93-26.49L206,188L206,188z M206,72v4h-28c-15.44,0-28-12.56-28-28    c0-15.44,12.56-28,28-28s28,12.56,28,28V72z M286,492h-60V96h60V492z M286,76h-60v-4c0-16.54,13.46-30,30-30s30,13.46,30,30V76z     M306,72V48c0-15.44,12.56-28,28-28s28,12.56,28,28c0,15.44-12.56,28-28,28h-28V72z M492,188h-17H306v-49.57    c14.47,16.24,35.52,26.49,58.92,26.49c5.52,0,10-4.48,10-10s-4.48-10-10-10c-29.08,0-53.29-21.18-58.06-48.93H470    c12.13,0,22,9.87,22,22V188z"></path>
	</g>
</g>
<g>
	<g>
		<path class="st0" d="M176,291c-5.52,0-10,4.48-10,10v92.97c0,5.52,4.48,10,10,10c5.52,0,10-4.48,10-10V301    C186,295.48,181.52,291,176,291z"></path>
	</g>
</g>
<g>
	<g>
		<path class="st0" d="M176,252.33c-5.52,0-10,4.48-10,10v0.19c0,5.52,4.48,10,10,10c5.52,0,10-4.48,10-10v-0.19    C186,256.81,181.52,252.33,176,252.33z"></path>
	</g>
</g>
<g>
	<g>
		<path class="st0" d="M482.07,330.81c-1.86-1.86-4.44-2.92-7.07-2.92s-5.21,1.06-7.07,2.92c-1.86,1.86-2.93,4.44-2.93,7.07    c0,2.64,1.07,5.22,2.93,7.08s4.44,2.93,7.07,2.93s5.21-1.07,7.07-2.93c1.86-1.87,2.93-4.44,2.93-7.08    C485,335.25,483.93,332.67,482.07,330.81z"></path>
	</g>
</g>
</svg>