<svg xmlns="http://www.w3.org/2000/svg" xmlns:xlink="http://www.w3.org/1999/xlink" id="Capa_1" x="0px" y="0px" viewBox="0 0 512 512" style="enable-background:new 0 0 512 512;" xml:space="preserve">
<style type="text/css">
	.st0{fill:#150E4B;}
</style>
<g>
	<g>
		<polygon class="st0" points="270.48,258.3 270.48,511.67 300.25,511.67 300.25,247.4   "></polygon>
	</g>
</g>
<g>
	<g>
		<path class="st0" d="M90.71,323.73v143c0,24.78,20.16,44.94,44.94,44.94h104.67V269.21L90.71,323.73z"></path>
	</g>
</g>
<g>
	<g>
		<path class="st0" d="M330.41,240.02v271.65h104.87c24.78,0,44.74-20.16,44.74-44.94V240.02H330.41z"></path>
	</g>
</g>
<g>
	<g>
		<path class="st0" d="M455.71,79.3c-8.44-23.15-33.93-35.39-57.6-26.86L270.13,99.02l43.57,111.68l167.65-61.01L455.71,79.3z"></path>
	</g>
</g>
<g>
	<g>
		<path class="st0" d="M185.67,129.76L60.25,175.4c-23.31,8.49-35.38,34.21-26.86,57.6l25.62,70.38l170.23-61.95L185.67,129.76z"></path>
	</g>
</g>
<g>
	<g>
		<polygon class="st0" points="241.77,109.34 213.61,119.59 257.59,231.11 285.75,220.87   "></polygon>
	</g>
</g>
<g>
	<g>
		<path class="st0" d="M326.9,12.12C309.57-0.55,287.38-3.2,267.6,5.09c-19.79,8.27-33.52,25.86-36.71,47.08l-5.04,31.07    l32.05-11.67l2.63-14.96c1.61-10.77,8.56-19.69,18.61-23.88c9.7-4.08,21.01-3.05,30.08,3.57c5.35,3.92,8.94,6.68,10.89,12.62    l27.95-10.17C344.09,27.31,337.07,19.56,326.9,12.12z"></path>
	</g>
</g>
<g>
	<g>
		<path class="st0" d="M189.39,64.71C173.31,50.49,151.46,45.83,131,52.23c-20.48,6.41-35.77,22.66-40.89,43.49    c-3.01,12.24-1.75,24.66,2.56,35.99l27.95-10.17c-2.32-5.81-3.01-12.2-1.43-18.65c2.6-10.58,10.36-18.81,20.74-22.06    c10.04-3.17,21.22-1.09,29.61,6.32l13.29,11.75l32.04-11.66L189.39,64.71z"></path>
	</g>
</g>
</svg>