<svg xmlns="http://www.w3.org/2000/svg" xmlns:xlink="http://www.w3.org/1999/xlink" id="Capa_1" x="0px" y="0px" viewBox="0 0 512 512" style="enable-background:new 0 0 512 512;" xml:space="preserve">
<style type="text/css">
	.st0{fill:#150E4B;}
</style>
<g>
	<g>
		<path class="st0" d="M441.49,306.06c-4.09,0-7.86,2.58-9.33,6.4c-1.52,3.95-0.31,8.54,2.94,11.25c3.21,2.68,7.91,3.05,11.5,0.9    c3.58-2.14,5.48-6.39,4.69-10.49C450.39,309.5,446.21,306.06,441.49,306.06z"></path>
		<path class="st0" d="M438.41,351.3c-5.35-1.33-10.76,1.93-12.1,7.28C406.83,436.87,336.79,491.55,256,491.55    c-96.77,0-175.5-78.73-175.5-175.5s78.73-175.5,175.5-175.5c79.62,0,149.4,53.69,169.7,130.57c0.19,0.7,0.37,1.41,0.54,2.12    c1.34,5.35,6.76,8.59,12.11,7.25c5.35-1.34,8.59-6.76,7.25-12.11c-0.2-0.78-0.4-1.57-0.6-2.35    c-11.14-42.18-35.64-78.09-68.25-103.68v-27.2c0-24.49-19.93-44.42-44.42-44.42h-2.55l19.57-23.68c2.66-3.22,3.04-7.75,0.94-11.37    L321.17,5.46c-1.78-3.08-5.07-4.97-8.63-4.97H199.45c-3.56,0-6.85,1.89-8.63,4.97L161.7,55.67c-2.09,3.61-1.72,8.15,0.94,11.37    l19.57,23.68h-2.55c-24.49,0-44.42,19.93-44.42,44.42v27.3c-45.47,35.82-74.71,91.36-74.71,153.6    c0,107.78,87.69,195.46,195.47,195.46c44.51,0,86.45-14.58,121.27-42.16c33.77-26.75,58.07-64.38,68.42-105.96    C447.02,358.05,443.76,352.63,438.41,351.3L438.41,351.3z M218.17,70.66l14.82,50.17l-41.46-50.17H218.17z M258.26,120.59    c-0.75-0.01-1.51-0.01-2.26-0.01c-0.76,0-1.51,0-2.26,0.01l-14.75-49.93h34.03L258.26,120.59z M293.83,70.66h26.64L279,120.84    L293.83,70.66z M332.33,110.68c13.49,0,24.46,10.97,24.46,24.46v13.43c-17.2-10.36-36.06-18.11-55.97-22.8l12.47-15.09    L332.33,110.68z M306.79,20.45l17.54,30.25h-26.42l-15.67-30.25H306.79z M260.15,21.18l15.29,29.52h-38.88l15.29-29.52H260.15z     M205.2,20.45h24.54L214.08,50.7h-26.42L205.2,20.45z M155.2,135.14c0-13.49,10.97-24.46,24.46-24.46h19.04l12.46,15.08    c-20.01,4.71-38.84,12.51-55.96,22.86L155.2,135.14L155.2,135.14z"></path>
		<path class="st0" d="M256,163.23c-84.26,0-152.81,68.55-152.81,152.81S171.73,468.86,256,468.86s152.81-68.55,152.81-152.81    S340.26,163.23,256,163.23L256,163.23z M256,448.9c-73.26,0-132.85-59.6-132.85-132.85c0-73.26,59.6-132.85,132.85-132.85    s132.85,59.6,132.85,132.85C388.85,389.3,329.25,448.9,256,448.9L256,448.9z"></path>
	</g>
</g>
</svg>