<svg xmlns="http://www.w3.org/2000/svg" width="825.000000pt" height="301.000000pt" viewBox="0 0 825.000000 301.000000" preserveAspectRatio="xMidYMid meet"><metadata>
Created by potrace 1.16, written by Peter Selinger 2001-2019
</metadata><g transform="translate(0.000000,301.000000) scale(0.100000,-0.100000)" fill="#000000" stroke="none"><path d="M0 1505 l0 -1505 4125 0 4125 0 0 1505 0 1505 -4125 0 -4125 0 0 -1505z m4708 1011 c98 -9 102 -13 102 -106 0 -43 -4 -81 -9 -85 -6 -3 -45 4 -88 15 -88 23 -151 19 -178 -10 -26 -29 -6 -52 96 -105 205 -109 265 -220 185 -342 -59 -90 -146 -124 -311 -124 -125 0 -183 15 -202 52 -15 28 -17 155 -4 163 5 3 39 -6 77 -20 108 -40 224 -33 224 15 0 26 -23 43 -126 94 -110 55 -151 88 -175 142 -38 82 -20 165 49 227 66 60 189 101 272 92 14 -2 53 -5 88 -8z m-1369 -6 c19 -5 38 -15 43 -22 12 -20 10 -162 -3 -175 -7 -7 -20 -8 -33 -3 -44 16 -132 22 -174 11 -51 -14 -100 -55 -118 -98 -23 -53 -18 -154 9 -193 58 -86 124 -100 295 -64 l32 7 0 -85 c0 -108 -7 -114 -124 -130 -156 -21 -294 19 -376 108 -62 67 -83 122 -88 231 -10 205 82 345 262 402 68 22 217 28 275 11z m3273 -23 c141 -69 230 -250 200 -409 -25 -136 -117 -257 -227 -298 -84 -32 -198 -32 -280 0 -79 31 -156 104 -198 189 -30 61 -32 73 -32 166 0 92 2 105 33 170 50 105 105 155 214 196 80 29 214 23 290 -14z m-4565 15 c125 -4 226 -11 232 -17 6 -7 -10 -36 -46 -85 l-55 -75 -189 -6 c-104 -3 -192 -9 -195 -12 -4 -4 15 -54 42 -112 l48 -105 209 0 c128 0 207 -4 205 -10 -11 -31 -124 -170 -146 -179 -15 -6 -78 -14 -141 -18 -85 -6 -116 -12 -122 -23 -4 -8 -27 -55 -51 -105 -56 -120 -155 -221 -276 -284 -80 -41 -241 -89 -355 -106 -26 -4 -50 -11 -53 -17 -7 -10 28 -52 346 -413 368 -418 463 -535 447 -551 -9 -10 -301 -16 -312 -7 -6 4 -138 148 -295 318 -294 320 -340 370 -478 517 l-82 87 0 104 0 104 178 7 c97 4 208 13 245 21 143 30 268 117 336 236 33 58 38 83 19 95 -7 5 -200 11 -429 14 -230 3 -421 8 -425 12 -7 8 21 54 88 146 l39 52 323 0 c179 0 331 3 340 6 27 10 18 40 -25 79 -102 91 -268 132 -597 144 l-173 6 42 60 c23 33 53 75 66 93 l24 32 497 -1 c273 0 597 -4 719 -7z m1934 -11 c14 -13 210 -648 212 -686 2 -36 0 -40 -28 -46 -51 -11 -139 -9 -164 4 -16 8 -30 29 -40 60 -9 26 -23 52 -31 57 -18 12 -180 13 -198 2 -7 -5 -21 -31 -30 -58 -22 -59 -47 -74 -122 -73 -85 2 -115 11 -118 36 -3 19 206 660 229 705 8 15 24 16 147 11 75 -3 140 -8 143 -12z m1209 -121 l5 -135 120 0 120 0 5 135 5 135 110 0 110 0 -3 -370 c-2 -203 -4 -370 -5 -371 -1 -1 -49 -3 -107 -5 l-105 -4 -3 148 -3 148 -122 -3 -122 -3 -10 -140 -10 -140 -95 -7 c-52 -4 -101 -5 -107 -3 -10 3 -13 87 -13 373 0 203 3 372 7 376 4 3 54 5 112 4 l106 -3 5 -135z m1967 118 c11 -13 70 -94 132 -181 62 -86 116 -159 120 -162 5 -2 11 75 14 172 3 97 10 180 15 185 5 5 51 7 103 6 l94 -3 0 -375 0 -375 -87 -3 -87 -3 -38 49 c-21 26 -90 121 -152 209 -63 89 -118 160 -122 157 -4 -2 -10 -89 -14 -193 -4 -104 -10 -193 -14 -198 -3 -6 -48 -13 -98 -16 l-93 -7 0 373 c0 206 3 377 7 380 3 4 50 7 103 7 87 0 98 -2 117 -22z m-3949 -1328 c144 -12 205 -37 256 -107 119 -164 72 -464 -88 -558 -70 -41 -159 -55 -363 -55 l-183 0 0 358 c0 197 3 362 7 365 9 10 240 8 371 -3z m890 -77 l3 -83 -104 0 c-67 0 -107 -4 -115 -12 -16 -16 -15 -63 1 -76 7 -6 58 -13 113 -14 l99 -3 -1 -83 c-1 -45 -4 -85 -7 -88 -3 -3 -46 -9 -96 -13 -95 -8 -121 -20 -121 -55 0 -46 13 -51 135 -54 l115 -4 0 -79 0 -79 -240 0 -240 0 0 358 c0 197 3 362 7 366 4 3 106 5 227 4 l221 -3 3 -82z m360 -200 l2 -283 125 0 125 0 0 -80 0 -80 -240 0 -240 0 0 358 c0 197 3 362 7 366 4 3 54 5 112 4 l106 -3 3 -282z m582 -78 l0 -365 -115 0 -115 0 0 358 c0 197 3 362 7 365 3 4 55 7 115 7 l108 0 0 -365z m791 348 c11 -11 -13 -92 -128 -440 l-88 -263 -131 0 -131 0 -82 248 c-111 339 -142 445 -132 455 4 4 57 6 117 5 l109 -3 60 -237 c33 -131 63 -238 66 -238 3 0 32 107 64 238 32 130 60 241 63 246 6 11 201 1 213 -11z m569 -68 l0 -85 -113 0 c-75 0 -117 -4 -125 -12 -16 -16 -15 -63 1 -76 7 -6 58 -13 113 -14 l99 -3 3 -91 3 -92 -106 -4 c-111 -4 -125 -10 -125 -53 0 -45 13 -50 145 -53 l125 -4 0 -79 0 -79 -240 0 -240 0 0 358 c0 197 3 362 7 365 3 4 107 7 230 7 l223 0 0 -85z m593 65 c85 -25 146 -118 133 -202 -10 -61 -49 -122 -102 -158 l-45 -31 42 -47 c57 -65 180 -252 174 -263 -4 -5 -60 -9 -125 -9 l-120 0 -26 53 c-43 83 -104 177 -125 187 -29 16 -39 -17 -39 -134 l0 -106 -115 0 -115 0 0 358 c0 197 3 362 8 367 10 11 409 -2 455 -15z m511 -110 c22 -69 46 -124 51 -123 6 1 28 57 50 125 l40 123 118 3 c76 2 117 -1 117 -8 0 -6 -40 -91 -90 -189 -120 -241 -130 -272 -130 -416 l0 -115 -114 0 -113 0 -6 113 c-6 136 -18 173 -131 415 -47 101 -86 187 -86 193 0 6 48 9 126 7 l126 -3 42 -125z"></path><path d="M6390 2311 c-51 -27 -82 -94 -82 -175 0 -189 187 -265 244 -100 20 57 22 163 5 214 -14 39 -67 80 -106 80 -15 0 -42 -8 -61 -19z"></path><path d="M3817 2283 c-12 -19 -48 -193 -42 -203 10 -16 105 -13 111 5 8 20 -38 198 -53 202 -6 2 -13 0 -16 -4z"></path><path d="M3060 800 l0 -200 42 0 c91 0 166 66 189 168 28 118 -64 232 -186 232 l-45 0 0 -200z"></path><path d="M6773 1009 c-19 -19 -17 -133 2 -149 20 -17 64 -1 89 33 23 31 25 82 4 103 -20 21 -80 29 -95 13z"></path></g></svg>